PathFileType	4	(X/Y/Z)	C:\Users\Basilio\Documents\Thesis Gigler\squatting_fais\c3dfiles\044\SLS_back_pre4\markers_experimental.trc
DataRate	CameraRate	NumFrames	NumMarkers	Units	OrigDataRate	OrigDataStartFrame	OrigNumFrames
200.000000	200.000000	4	63	mm	200.000000	1025	1367
Frame#	Time	FHD			LBHD			RBHD			C7			T10			LSHO			LUUPA			LMUPA			LDUPA			LLEP			LMEP			LUL			LRFIN			RSHO			RUPA1			RMUPA			RDUPA			RLEP			RMEP			RUFIN			LASI			RASI			USACR			LSACR			RSACR			LTHI1			LTHI2			LTHI3			LTHI4			LLFC			LMFC			LTIB1			LTIB2			LTIB3			LTIB4			LLMAL			LMMAL			LHEE			LMT1			LMT2			LMT5			RTHI			RTHI2			RTHI3			RTHI4			RLFC			RMFC			RTIB1			RTIB2			RTIB3			RTIB4			RLMAL			RMMAL			RHEE			RMT1			RMT2			RMT5			RRAD			RUL			CLAV			LRAD			*61			*62			
		X1	Y1	Z1	X2	Y2	Z2	X3	Y3	Z3	X4	Y4	Z4	X5	Y5	Z5	X6	Y6	Z6	X7	Y7	Z7	X8	Y8	Z8	X9	Y9	Z9	X10	Y10	Z10	X11	Y11	Z11	X12	Y12	Z12	X13	Y13	Z13	X14	Y14	Z14	X15	Y15	Z15	X16	Y16	Z16	X17	Y17	Z17	X18	Y18	Z18	X19	Y19	Z19	X20	Y20	Z20	X21	Y21	Z21	X22	Y22	Z22	X23	Y23	Z23	X24	Y24	Z24	X25	Y25	Z25	X26	Y26	Z26	X27	Y27	Z27	X28	Y28	Z28	X29	Y29	Z29	X30	Y30	Z30	X31	Y31	Z31	X32	Y32	Z32	X33	Y33	Z33	X34	Y34	Z34	X35	Y35	Z35	X36	Y36	Z36	X37	Y37	Z37	X38	Y38	Z38	X39	Y39	Z39	X40	Y40	Z40	X41	Y41	Z41	X42	Y42	Z42	X43	Y43	Z43	X44	Y44	Z44	X45	Y45	Z45	X46	Y46	Z46	X47	Y47	Z47	X48	Y48	Z48	X49	Y49	Z49	X50	Y50	Z50	X51	Y51	Z51	X52	Y52	Z52	X53	Y53	Z53	X54	Y54	Z54	X55	Y55	Z55	X56	Y56	Z56	X57	Y57	Z57	X58	Y58	Z58	X59	Y59	Z59	X60	Y60	Z60	X61	Y61	Z61	X62	Y62	Z62	X63	Y63	Z63	

1026	5.125	-81.02435302734376	1677.047119140625	-1024.880126953125	-211.4797973632813	1650.916259765625	-1109.787963867188	-264.2109985351563	1632.844970703125	-953.0474243164065	-288.0073242187501	1476.065795898438	-1039.634033203125	-376.2473144531251	1196.18212890625	-1001.918395996094	-193.6101074218751	1477.146850585938	-1178.089477539063	-34.57190322875977	1445.551147460938	-1276.652099609375	-5.552016735076905	1455.819702148438	-1235.80517578125	35.07067108154298	1439.6103515625	-1278.99072265625	93.6313934326172	1436.175659179688	-1267.603637695313	81.24850463867189	1359.234497070313	-1254.46044921875	343.5437316894532	1441.7470703125	-1134.524658203125	342.5664062500001	1462.779907226563	-1033.6064453125	-205.521469116211	1477.7900390625	-883.9588012695315	-64.29055023193361	1461.665893554688	-770.3649902343752	-31.03581428527833	1470.371337890625	-807.5645141601565	4.785542011260987	1459.437866210938	-760.8817138671876	66.94785308837892	1460.774780273438	-765.9683837890626	63.47888565063478	1378.830078125	-768.762145996094	330.5166015625001	1433.103393554688	-994.525329589844	-285.2707519531251	961.4237060546877	-1087.293090820313	-278.8820495605469	947.9802246093752	-876.348327636719	-426.5472106933595	1057.101318359375	-972.0749511718752	-445.1791076660157	1028.548217773438	-997.8745727539065	-438.4820556640626	1029.704223632813	-941.2520751953127	-316.5739746093751	751.6262207031251	-1158.431274414063	-252.8318786621094	696.7856445312501	-1154.095458984375	-211.6477966308594	717.5109863281251	-1144.551879882813	-254.2236328125001	637.8194580078126	-1136.24951171875	-183.1986846923828	505.6561584472657	-1109.974487304688	-183.9195861816407	511.2795715332032	-989.9199218750002	-199.5221405029297	337.6462097167969	-1018.058776855469	-234.4505462646485	292.6710815429688	-1086.021606445313	-206.7978668212891	286.7783203125001	-1046.583862304688	-247.3149414062501	221.0929260253907	-1011.667663574219	-329.3567504882813	121.8211822509766	-1055.2373046875	-311.7069702148438	132.0217590332032	-967.7888793945315	-397.4534301757814	103.0479202270508	-1005.208374023438	-191.2901916503907	56.93202590942384	-978.281433105469	-188.8668670654297	60.32724761962892	-1024.79736328125	-225.5652618408204	49.03466033935548	-1072.582641601563	-306.2347106933594	696.4406738281251	-796.2163696289065	-245.4814910888672	664.3475341796876	-796.317565917969	-217.1309661865235	679.1428222656251	-805.8635864257815	-237.8423461914063	581.2503051757814	-814.3748779296877	-233.3944244384766	505.1060791015626	-839.4389648437502	-238.4020233154297	501.2261047363282	-955.3695068359377	-315.0104980468751	408.1926879882814	-875.4805297851565	-412.2599182128907	449.1452941894532	-841.4817504882815	-400.5025939941407	406.2783203125001	-855.0958251953127	-440.7720031738282	377.9875183105469	-885.7535400390627	-609.6078491210939	382.5424804687501	-888.487731933594	-583.6361083984376	367.5271911621094	-970.5374755859377	-660.1679687500001	420.083221435547	-945.057556152344	-583.6400756835939	223.1083984375001	-958.493835449219	-589.2808837890626	214.5589752197266	-921.9420166015627	-632.1275634765626	238.9796905517579	-876.7229003906252	nan	nan	nan	325.1197204589844	1459.82861328125	-880.578063964844	-157.78125	1413.082641601563	-1035.386352539063	323.8129272460938	1396.00537109375	-1084.396484375	nan	nan	nan	nan	nan	nan	
1027	5.13	-81.60340881347658	1678.892822265625	-1024.916870117188	-211.9951171875001	1652.65625	-1109.72607421875	-265.1168823242188	1633.999267578125	-952.6840820312502	-288.1780090332032	1477.223022460938	-1039.458740234375	-376.2891845703126	1197.635131835938	-1002.218872070313	-193.6967315673829	1479.1015625	-1178.2109375	-34.69157791137696	1447.619506835938	-1276.57470703125	-5.791798114776612	1457.574584960938	-1235.658569335938	34.87172317504884	1441.3427734375	-1278.911865234375	93.3095169067383	1437.8212890625	-1267.37353515625	81.19057464599611	1360.80859375	-1254.359619140625	343.1518859863282	1443.442138671875	-1134.027954101563	342.2926635742188	1464.249633789063	-1033.111450195313	-206.1471252441407	1479.803955078125	-884.0089111328127	-64.91461181640626	1463.2470703125	-770.268493652344	-31.84922027587891	1471.983520507813	-807.4561157226565	4.173458099365235	1461.29638671875	-760.7124633789064	66.35122680664064	1462.588989257813	-765.8183593750001	63.09227371215822	1380.908325195313	-768.582458496094	330.1246643066407	1435.00830078125	-994.1753540039065	-284.9641418457032	962.8739013671877	-1087.31005859375	-278.6196289062501	949.757995605469	-876.3095703125002	-426.4652404785157	1058.540893554688	-972.3652954101565	-445.0893554687501	1029.908447265625	-998.1423339843752	-438.196258544922	1031.044311523438	-941.6184082031252	-316.5131225585938	752.7593383789064	-1158.313720703125	-253.0197906494141	697.4337158203126	-1153.99951171875	-211.1406707763672	717.6287231445314	-1144.550048828125	-254.7342224121094	638.4729614257814	-1136.014038085938	-184.3772430419922	506.1532287597657	-1109.719970703125	-184.7134399414063	511.7308959960939	-989.830993652344	-200.2198181152344	338.1006774902344	-1017.66552734375	-234.9591827392579	292.9338989257813	-1085.9091796875	-207.3403320312501	287.1587219238282	-1046.39697265625	-247.5661010742188	221.3224029541016	-1011.6416015625	-329.3995361328126	121.8464126586914	-1055.133544921875	-311.8973999023438	132.0540771484375	-967.7307739257815	-397.4751586914064	103.0619735717774	-1005.07373046875	-191.3193359375	56.90333557128908	-978.205749511719	-188.9082946777344	60.42939758300783	-1024.76708984375	-225.7113647460938	49.41353607177736	-1072.501098632813	-305.4999389648438	698.4776000976564	-796.1285400390627	-244.9847106933594	666.2620849609376	-796.781677246094	-216.3754577636719	681.1933593750001	-805.5991821289065	-236.9731903076172	583.1580200195314	-814.0388183593752	-232.4795074462891	506.964324951172	-839.0670166015627	-237.3749237060547	502.7369384765626	-954.9305419921877	-313.8666687011719	409.3655090332032	-874.8667602539065	-410.8973999023439	449.807586669922	-840.9771728515627	-399.1629333496095	407.5726318359376	-854.803405761719	-439.4438476562501	378.7620544433594	-884.963562011719	-608.1705322265626	382.5303955078126	-887.9461669921877	-581.8815917968751	367.4599609375001	-969.8272705078127	-659.2542724609376	419.144256591797	-944.6236572265627	-580.6766967773439	223.9869384765626	-957.390808105469	-585.8945312500001	215.0583801269532	-921.223083496094	-628.9305419921876	238.8498840332032	-875.5196533203127	nan	nan	nan	324.4851989746094	1461.630737304688	-879.9479980468752	-157.9282684326172	1414.745971679688	-1035.400268554688	323.1816406250001	1397.617431640625	-1083.986572265625	nan	nan	nan	nan	nan	nan	
1028	5.135	-82.02300262451173	1680.789672851563	-1024.930297851563	-213.3591003417969	1653.711669921875	-1109.654052734375	-265.4978332519532	1635.728393554688	-952.7086181640627	-288.7455139160157	1478.796630859375	-1039.467163085938	-376.3292236328126	1199.078002929688	-1002.451232910156	-193.9621124267579	1480.559936523438	-1178.064453125	-35.27667999267579	1448.899658203125	-1276.446655273438	-6.130214691162111	1459.134521484375	-1235.655517578125	34.58595657348634	1442.92578125	-1278.795166015625	92.59853363037111	1439.956787109375	-1267.2470703125	80.96205902099611	1362.641967773438	-1254.20654296875	342.4583435058594	1445.550903320313	-1133.7578125	341.7702026367188	1466.336181640625	-1032.820068359375	-206.7636871337891	1481.31005859375	-883.8963623046877	-65.36966705322267	1465.085693359375	-770.0933837890627	-32.25876617431641	1473.954956054688	-807.4726562500002	3.615420818328858	1462.987548828125	-760.6134033203126	65.82785797119142	1464.2705078125	-765.6345825195314	62.46862411499025	1382.606567382813	-768.544860839844	329.7286071777344	1436.953247070313	-993.8283691406252	-284.6091308593751	964.2387695312502	-1087.403930664063	-278.3980407714844	951.4119262695315	-876.4724121093752	-426.5087280273439	1059.656005859375	-972.6204833984377	-444.6907653808595	1030.962158203125	-998.6112060546877	-438.1555786132814	1032.455932617188	-941.9846191406252	-316.6950378417969	753.6064453125001	-1158.259155273438	-253.2779235839844	698.0452880859376	-1153.869873046875	-211.5685577392579	717.9590454101564	-1144.240356445313	-255.2423400878907	639.3229370117189	-1135.693359375	-185.4683074951172	506.5306396484376	-1109.497802734375	-185.4791412353516	512.2247924804689	-989.6690673828127	-200.8487243652344	338.0584716796876	-1017.471862792969	-235.4092559814454	293.2436828613282	-1085.803955078125	-208.0510711669922	287.7088317871094	-1046.333740234375	-247.7627716064454	221.5155944824219	-1011.523803710938	-329.4677124023438	121.8616943359375	-1055.075561523438	-312.0240783691407	131.9905548095703	-967.6524658203127	-397.467498779297	102.9893875122071	-1005.142456054688	-191.3858795166016	56.9030113220215	-978.1951904296877	-188.8873596191407	60.52586746215822	-1024.711303710938	-225.7224273681641	49.19081497192384	-1072.524658203125	-304.9973754882813	700.2046508789064	-795.9824218750002	-244.0172119140626	668.1104736328126	-796.0009765625002	-215.8162841796876	683.2521972656251	-805.4959106445315	-236.2218322753907	585.0242919921876	-813.7930908203127	-231.4311676025391	508.7687072753907	-838.7452392578127	-236.2729797363282	504.4536743164064	-954.5423583984377	-312.4226684570313	410.9762268066407	-874.200622558594	-409.9182128906251	451.0400390625001	-840.5599365234377	-397.8586425781251	408.6261291503907	-854.0332031250002	-437.9411926269532	379.7249450683594	-884.7346191406252	-606.9506225585939	382.4118957519532	-887.2566528320315	-580.3733520507814	367.3760375976563	-969.2427368164065	-658.4721679687501	418.3778076171876	-944.1936645507815	-577.7087402343751	223.3501434326172	-956.037292480469	-582.3571777343751	214.5158233642579	-920.2586059570315	-625.8298950195314	238.733139038086	-874.3675537109377	nan	nan	nan	323.9391479492188	1463.850341796875	-879.9314575195315	-158.4841613769532	1416.578002929688	-1035.351806640625	322.7638854980469	1399.71240234375	-1083.700317382813	nan	nan	nan	nan	nan	nan	
1029	5.14	-82.77783966064455	1682.641235351563	-1024.721313476563	-213.8807678222657	1655.500244140625	-1109.617797851563	-266.0867309570313	1637.533569335938	-952.754577636719	-289.0332946777344	1480.327026367188	-1039.50146484375	-376.5355834960938	1200.484985351563	-1002.678283691406	-194.4026031494141	1482.328369140625	-1178.205810546875	-35.50499725341798	1450.716674804688	-1276.375732421875	-6.374347209930422	1460.809692382813	-1235.56201171875	34.19926071166993	1444.767578125	-1278.626831054688	92.94336700439455	1441.347900390625	-1267.312377929688	80.5300750732422	1364.504516601563	-1253.992431640625	342.3364868164063	1446.977905273438	-1133.356567382813	341.1727294921876	1467.925048828125	-1032.476196289063	-207.3267364501954	1482.782958984375	-883.7377929687502	-65.89646148681642	1466.62451171875	-769.9317016601565	-32.6818962097168	1475.48388671875	-807.2391357421877	3.039529561996461	1464.627563476563	-760.4317016601564	65.16125488281251	1466.22412109375	-765.2725219726564	62.00060653686525	1384.412353515625	-768.3248291015627	329.3087768554688	1438.798461914063	-993.465026855469	-284.2873535156251	965.5562133789065	-1087.392211914063	-278.1799621582032	952.9912109375002	-876.5778808593752	-426.479949951172	1061.169921875	-973.0200805664065	-444.5333557128907	1032.375366210938	-998.9305419921877	-438.0133361816407	1033.681640625	-942.2551269531252	-316.8965759277344	754.3363037109376	-1158.17431640625	-253.6348114013672	698.4757080078126	-1153.684204101563	-211.8223876953126	718.5374755859376	-1143.97509765625	-255.8888244628907	640.1057128906251	-1135.38427734375	-186.3563385009766	506.9941406250001	-1109.203979492188	-186.7540283203125	512.7025146484376	-989.346130371094	-201.7523498535157	338.5277099609376	-1017.236267089844	-235.880599975586	293.5273437500001	-1085.656127929688	-208.7020721435547	288.2302551269532	-1046.28369140625	-248.2261352539063	221.6636199951172	-1011.318237304688	-329.0550231933594	122.02734375	-1054.75927734375	-312.1292114257813	131.9046325683594	-967.5032958984377	-397.4968261718751	102.9682235717774	-1005.017333984375	-191.4891662597657	56.91296386718751	-978.1214599609377	-188.9334106445313	60.65033340454103	-1024.712646484375	-225.6820526123047	49.2987747192383	-1072.494262695313	-304.5668029785157	701.7031860351564	-795.6319580078127	-243.3609466552735	669.9268188476564	-795.7974243164065	-215.1971893310547	685.1589965820314	-805.1773681640627	-235.3179473876954	586.5878295898439	-813.086364746094	-230.4271087646485	509.870574951172	-837.869812011719	-235.4171142578126	505.3066406250001	-953.4936523437502	-311.0118713378907	411.8533630371095	-873.6143798828127	-408.7817993164064	452.1171875000001	-840.2246093750002	-396.4447631835939	409.6856994628907	-853.5485839843752	-436.2371215820314	380.3353576660157	-883.9968872070315	-605.4425659179689	382.4996032714844	-886.947937011719	-578.6903686523439	367.3111877441407	-969.1909790039065	-657.5625000000001	417.7375793457032	-943.881042480469	-574.5166625976564	223.5315246582032	-954.6409301757815	-579.2042846679689	215.0481719970704	-918.7135009765627	-622.8547973632814	238.6930389404297	-873.151306152344	nan	nan	nan	323.6162414550782	1465.728637695313	-879.5704345703127	-158.68115234375	1418.218994140625	-1035.270874023438	322.3709411621094	1401.468017578125	-1083.187744140625	nan	nan	nan	nan	nan	nan	
